<svg width="769" height="769" viewBox="0 0 769 769" fill="none" xmlns="http://www.w3.org/2000/svg">
<path d="M246.842 176.89C313.768 82.9935 434.302 68.3429 551.506 145.591C668.71 222.839 687.356 290.999 687.356 400.31C687.356 473.562 576.478 648.702 353.058 636.382C129.638 624.062 190.238 454.583 234.19 360.687C278.141 266.79 178.996 272.077 246.842 176.89Z" fill="#E9EAFF"/>
<path d="M158.727 157.981C225.653 64.085 346.186 49.4344 463.39 126.682C580.594 203.93 599.24 272.091 599.24 381.401C599.24 454.654 488.363 629.793 264.943 617.474C41.523 605.154 102.123 435.675 146.074 341.778C190.026 247.882 90.8807 253.168 158.727 157.981Z" fill="#E9FFFB"/>
<path d="M95.7268 80.9813C162.653 -12.915 283.186 -27.5656 400.39 49.6825C517.594 126.93 536.24 195.091 536.24 304.401C536.24 377.654 425.363 552.793 201.943 540.474C-21.477 528.154 39.1227 358.675 83.0741 264.778C127.026 170.882 27.8807 176.168 95.7268 80.9813Z" fill="#FFE9F2"/>
<path d="M212.244 301.961L213.269 302.022L212.244 301.961Z" fill="white"/>
<path d="M297.203 143.813L295.47 144.495C296.778 144.387 297.67 144.187 297.203 143.813Z" fill="white"/>
<path d="M666.872 546.882C658.484 549.748 639.608 546.759 620.465 547.395C620.83 547.114 621.218 546.864 621.624 546.646C638.029 537.931 634.815 531.092 626.433 535.368C620.388 538.444 617.748 544.375 617.015 546.452C617.102 546.108 617.215 545.636 617.353 545.016C622.567 520.772 599.723 522.971 612.227 543.381C613.221 545.006 613.626 546.862 614.277 547.667C605.464 547.79 603.942 544.293 593.683 549.451C592.658 547.687 591.335 545.031 589.926 542.345L596.918 538.649C597.564 537.29 591.658 525.227 582.538 508.155C582.538 508.155 574.587 493.626 563.569 474.063H597.098V461.087H556.238C539.659 431.865 519.28 396.963 507.796 380.968C502.121 373.057 489.95 369.833 468.936 369.869C452.198 369.904 417.3 370.079 382.296 370.335C373.58 349.828 363.768 325.272 363.229 323.923L364.701 324.513V324.446C365.547 324.959 367.618 326.082 376.492 328.978C469.526 359.379 432.219 287.606 387.002 259.64C369.699 248.941 333.925 217.914 309.466 218.704V215.499C309.461 214.786 309.173 214.104 308.665 213.602C308.158 213.101 307.473 212.821 306.759 212.823L292.856 212.895C292.83 210.988 292.543 209.173 292.482 207.358C292.394 204.795 292.271 201.78 294.927 199.391C301.023 193.906 304.668 188.185 303.642 177.911C302.719 168.765 297.449 155.799 295.101 144.649L295.496 144.495L295.076 144.526C295.035 144.341 294.988 144.152 294.953 143.972C289.539 117.026 241.123 120.554 247.321 152.688C247.449 153.339 247.926 156.609 248.638 160.972C248.232 161.28 247.89 161.665 247.632 162.104C247.374 162.544 247.206 163.031 247.136 163.536L248.946 162.823C249.853 168.257 251.068 174.907 252.396 180.315C253.452 184.627 256.287 189.266 257.42 190.738C261.686 196.274 261.957 206.887 262.306 213.059L246.977 213.136C246.264 213.141 245.582 213.429 245.08 213.937C244.578 214.444 244.298 215.13 244.301 215.843V216.125C229.582 213.192 214.377 224.84 199.14 237.795C189.046 246.377 175.327 256.051 169.534 261.322C145.879 282.854 117.467 314.685 141.337 333.187C152.477 341.826 168.309 345.722 184.775 347.47C210.275 347.757 246.234 348.229 246.234 348.229L253.201 378.384C253.201 378.384 247.228 445.067 312.404 461.087H134.247V474.068H423.463C429.158 510.355 429.83 550.343 429.83 587.367C429.83 587.47 432.824 587.25 437.412 586.855C437.325 589.162 437.253 591.746 437.259 593.976C434.183 594.145 431.496 594.319 431.512 594.458C432.024 599.477 430.256 640.336 433.162 640.869C437.776 641.715 459.257 643.233 461.113 639.793C461.487 639.101 462.815 629.683 465.471 627.694C466.301 627.068 467.265 627.181 468.372 628.509C469.316 629.647 470.361 635.22 471.52 638.081C474.878 646.401 530.938 640.962 540.699 640.921C543.217 640.921 551.542 630.76 536.029 625.494C525.263 621.834 517.722 619.271 512.113 617.03L501.388 613.39C496.884 611.857 492.968 608.961 490.184 605.103C487.4 601.245 485.885 596.616 485.849 591.858L484.824 474.042H486.849L550.824 557.151C553.024 559.714 554.295 561.186 554.295 561.186L559.873 558.238C562.047 561.088 564.436 564.513 566.199 566.953C564.933 567.779 564.067 568.378 564.149 568.445C567.435 572.336 589.269 606.716 591.93 605.844C596.175 604.46 614.487 596.026 614.062 592.361C613.918 591.197 604.783 573.192 620.004 584.03C627.478 589.351 671.542 561.852 679.473 557.412C681.498 556.31 681.575 541.858 666.872 546.882ZM237.611 302.473H237.493H237.344H237.165H237.042C236.58 302.438 236.016 302.402 235.345 302.366H234.745C232.746 302.284 230.095 302.232 227.209 302.202H226.947H225.004H224.092H221.267H218.986H217.612H215.484H212.352H209.67H208.825C208.138 302.202 207.579 302.202 207.184 302.171C206.712 302.171 206.461 302.135 206.492 302.109L206.625 301.997C208.753 302.038 210.66 302.089 212.234 302.171L206.805 301.853C211.701 297.89 233.976 283.792 234.022 280.68L238.354 302.842C238.137 302.666 237.883 302.54 237.611 302.473ZM417.823 441.785C418.3 446.333 419.361 452.039 420.822 459.288C420.945 459.883 421.058 460.488 421.176 461.087H352.715C374.052 457.468 396.717 449.711 417.823 441.785ZM618.553 547.467H618.85H618.553Z" fill="white"/>
<path d="M557.048 347.588L558.074 331.839C561.396 333.29 565.128 334.73 569.352 336.171C580.467 339.959 599.6 344.456 601.753 345.204C612.565 348.972 597.241 329.106 593.494 320.376C587.193 305.688 563.831 277.153 561.739 256.241C559.827 237.149 536.752 233.786 533.255 251.073C529.667 254.113 525.207 259.153 528.17 259.153C529.195 259.153 531.03 259.215 533.004 259.153C533.004 259.225 533.004 259.291 533.004 259.358C536.87 293.194 523.945 311.214 547.595 326.369C548.107 334.428 549.333 347.439 549.333 347.439L547.759 326.471C551.036 328.509 554.464 330.295 558.012 331.813C557.587 336.966 557.428 341.2 557.11 346.763L557.048 347.588Z" fill="white"/>
<path d="M597.257 631.518H599.359V603.921C598.631 604.265 597.928 604.583 597.257 604.885V631.518Z" fill="black"/>
<path d="M358.431 461.087C356.517 461.467 354.615 461.817 352.725 462.138C350.332 462.542 347.952 462.883 345.583 463.164H420.494C420.428 462.81 420.356 462.461 420.289 462.138C420.223 461.815 420.151 461.436 420.079 461.087H358.431Z" fill="black"/>
<path d="M473.514 584.85L472.453 584.932L471.428 585.014C464.589 585.527 456.145 586.291 448.665 586.942L438.412 587.834L437.387 587.921L436.361 588.008C436.305 589.649 436.259 591.366 436.254 592.986L437.279 592.925L438.304 592.868L440.991 592.73C443.18 592.617 445.246 592.514 445.794 592.453C451.044 591.904 459.185 591.53 465.132 591.264C467.393 591.161 469.346 591.069 470.592 590.997L471.699 590.93L472.75 590.884L473.776 590.843C473.776 590.653 473.776 590.469 473.776 590.269C473.745 589.515 473.709 588.675 473.673 587.747C473.617 586.691 473.571 585.732 473.514 584.85Z" fill="black"/>
<path d="M570.952 562.744C572.669 561.662 574.289 560.642 574.699 560.35C582.492 554.798 588.029 551.245 592.274 549.02L593.207 548.538C593.53 548.374 593.842 548.225 594.15 548.077C593.555 546.985 592.868 545.662 592.161 544.298L591.376 542.791L590.448 543.304L589.515 543.816L561.473 558.653L560.529 559.166L559.591 559.678C561.129 561.693 562.667 563.923 564.041 565.83L564.723 566.789C564.974 566.62 565.236 566.425 565.6 566.21L566.486 565.635C567.573 564.866 569.024 563.933 570.952 562.744Z" fill="black"/>
<path d="M437.433 585.799L438.458 585.711L448.44 584.85C455.92 584.194 464.332 583.461 471.218 582.922L472.243 582.846L473.309 582.764C477.985 582.41 481.717 582.179 483.563 582.174C485.403 576.637 484.716 525.048 484.255 490.642C484.178 484.737 484.101 479.154 484.039 474.068C484.039 473.714 484.039 473.36 484.039 473.017C484.039 472.674 484.039 472.315 484.039 471.992V471.479C484.039 470.344 484.027 469.24 484.003 468.167C483.962 466.532 483.891 464.876 483.783 463.215L483.706 462.189C483.706 461.841 483.655 461.487 483.624 461.139C482.481 447.445 478.841 433.813 471.32 428.841C467.798 426.518 463.63 426.375 458.903 428.41L458.78 428.461H458.647C454.751 429.056 443.923 432.932 439.294 434.716L434.905 436.402C429.733 438.402 424.385 440.463 418.926 442.518C419.438 446.851 420.433 452.259 421.827 459.113C421.966 459.78 422.094 460.452 422.222 461.123C422.294 461.472 422.36 461.82 422.432 462.174L422.632 463.199C423.186 466.096 423.693 469.023 424.17 471.976L424.339 473.002L424.508 474.053C430.261 510.76 430.845 550.814 430.855 586.291C431.958 586.229 433.931 586.075 436.387 585.87L437.433 585.799Z" fill="black"/>
<path d="M588.541 541.914L589.474 541.402L590.397 540.915L595.919 537.992C595.621 536.845 595.221 535.726 594.724 534.65C594.468 534.05 594.165 533.353 593.801 532.548C590.833 526.006 583.907 512.287 567.947 483.552C566.225 480.446 564.451 477.267 562.647 474.047L562.057 472.996L561.467 471.971C559.841 469.073 558.191 466.147 556.52 463.194L555.925 462.169L555.331 461.118C542.929 439.232 529.728 416.48 519.219 398.957C518.675 398.045 518.139 397.137 517.609 396.235C514.851 391.559 512.221 387.104 508.591 383.27C507.996 382.639 507.366 382.024 506.709 381.429C499.783 375.149 489.279 370.95 469.285 370.95H469.008C452.177 370.986 418.218 371.155 383.951 371.401H382.808H381.665C365.193 371.519 348.736 371.663 334.166 371.817L334.228 370.791L334.259 370.279H333.802L333.633 369.766C332.608 366.731 331.434 363.445 330.224 359.984C325.61 346.798 320.365 331.854 317.407 321.078C316.761 318.735 314.29 311.722 311.64 304.339L362.455 324.728C363.952 328.476 372.709 350.315 380.742 369.294H381.885H383.029C375.795 352.289 367.884 332.639 365.183 325.897C366.577 326.589 369.448 327.784 376.215 329.998C416.793 343.261 429.856 336.248 433.67 328.03C437.325 320.16 433.829 307.574 424.083 293.491C414.906 280.188 401.244 267.202 387.576 258.743C383.598 256.287 378.692 252.786 373.011 248.73C361.143 240.256 346.378 229.716 332.341 223.359C323.954 219.555 316.715 217.642 310.532 217.606V215.494C310.526 214.506 310.129 213.56 309.428 212.863C308.727 212.166 307.779 211.774 306.79 211.772L293.907 211.839C293.866 211.121 293.804 210.424 293.743 209.742C293.666 208.907 293.594 208.117 293.568 207.322V207.271C293.481 204.79 293.389 202.221 295.665 200.171C301.894 194.572 305.811 188.625 304.714 177.803C304.201 172.461 302.227 166.012 300.166 159.178C298.787 154.6 297.367 149.883 296.373 145.464C296.075 145.5 295.727 145.536 295.347 145.567C295.029 145.567 294.676 145.608 294.281 145.623C293.312 145.659 292.102 145.674 290.59 145.669H288.252C283.018 145.669 272.118 145.602 269.237 146.182C268.904 146.248 268.525 146.3 268.084 146.356C264.264 146.869 260.906 147.807 261.388 153.646C261.67 156.897 261.265 158.881 260.076 160.085C258.579 161.623 256.282 161.423 253.621 161.223C253.186 161.193 252.74 161.157 252.278 161.131C251.449 161.053 250.613 161.178 249.843 161.495C249.48 161.665 249.156 161.909 248.895 162.213C248.539 162.644 248.306 163.163 248.218 163.715L248.079 163.689C248.977 169.006 250.13 175.358 251.422 180.561C252.524 185.042 255.411 189.789 256.641 191.373C260.414 196.274 260.906 205.605 261.255 211.777C261.255 211.86 261.255 211.931 261.255 212.008L247.034 212.08C246.211 212.089 245.415 212.368 244.766 212.873C244.118 213.379 243.654 214.084 243.445 214.879C228.875 212.685 213.849 223.964 198.53 236.99C193.475 241.287 187.416 245.931 182.068 250.028C176.568 254.247 171.815 257.887 168.898 260.542C142.967 284.048 130.684 302.473 131.243 316.889C131.509 323.621 134.672 329.383 140.65 334.018C149.186 340.646 160.465 344.512 172.666 346.773C161.49 347.911 150.488 351.587 143.593 359.892C134.806 370.443 133.852 402.269 132.314 454.997C132.048 464.189 131.766 473.689 131.422 483.911V631.559H133.524V534.67H226.999V631.518H229.101V483.87C229.101 481.676 229.101 478.303 229.024 474.047H422.381C422.33 473.694 422.268 473.345 422.212 472.996C422.155 472.648 422.104 472.294 422.048 471.971H228.993C228.957 469.31 228.906 466.368 228.839 463.194H315.372C314.219 463.01 313.075 462.805 311.947 462.569C311.291 462.43 310.645 462.292 310.004 462.143C308.613 461.819 307.246 461.468 305.903 461.092H228.793C228.501 447.763 227.952 430.871 226.973 414.44C224.071 365.659 219.667 356.637 216.427 354.919C215.259 352.745 210.398 350.951 206.502 349.823C212.849 349.967 218.996 349.956 224.692 349.946C233.284 349.946 240.759 349.915 246.618 350.397L251.207 373.76L251.719 373.575C251.877 373.523 252.038 373.48 252.201 373.447C252.437 373.39 252.77 373.319 253.227 373.232L248.792 350.572L235.442 282.254C235.396 281.844 235.17 280.716 234.202 275.912L233.079 270.175V270.365C232.248 266.228 231.433 262.044 231.428 261.404H229.326C229.326 262.429 230.454 268.068 232.043 275.856C232.382 277.501 232.72 279.178 232.971 280.434C232.423 282.484 220.626 290.626 214.274 295.024C210.834 297.408 207.815 299.495 206.261 300.735L201.647 300.664C191.502 300.53 178.875 300.361 174.097 298.705L173.404 300.694C178.505 302.458 191.322 302.632 201.601 302.771C203.103 302.771 204.539 302.807 205.892 302.832C206.282 303.022 207.097 303.032 209.173 303.053C210.844 303.053 213.162 303.078 215.771 303.089C222.99 303.089 234.74 303.15 237.431 303.494L246.177 348.224C240.328 347.783 233.022 347.798 224.645 347.814C214.956 347.814 203.954 347.844 192.911 347.096C190.558 346.809 188.082 346.583 185.534 346.47C168.985 344.773 152.99 340.949 141.906 332.352C136.441 328.117 133.55 322.883 133.309 316.797C132.796 303.237 145.182 284.832 170.175 262.096C173.025 259.502 177.747 255.887 183.212 251.699C188.579 247.597 194.66 242.927 199.75 238.595C208.435 231.213 218.504 223.01 228.142 219.114C233.515 216.961 238.503 216.253 243.189 216.996L243.348 246.762C243.354 247.75 243.751 248.696 244.452 249.393C245.153 250.091 246.101 250.482 247.09 250.484L272.446 250.351L272.272 250.279L272.652 249.3L273.026 248.315C273.626 248.546 274.21 248.828 274.789 249.089L275.189 249.284L275.912 249.664C276.307 249.874 276.702 250.089 277.091 250.315L278.573 251.171C282.105 253.221 285.75 255.375 290.692 255.375V257.477C285.186 257.477 281.111 255.093 277.512 252.991C276.696 252.514 275.902 252.053 275.112 251.622C274.8 251.453 274.487 251.289 274.169 251.109C273.851 250.93 273.538 250.802 273.221 250.658C273.098 250.866 272.993 251.084 272.908 251.309C272.062 253.585 273.077 256.569 275.984 260.404C276.445 260.583 277.009 260.809 277.691 261.091L277.855 261.158L279.003 261.624C283.751 263.547 291.436 266.423 298.9 266.423H299.997V268.525H298.9C292.082 268.525 285.202 266.289 280.306 264.423C279.547 264.131 278.839 263.849 278.183 263.582L276.891 263.07L276.655 262.972C276.907 263.803 277.717 264.823 279.255 266.361C279.301 266.479 279.373 266.694 279.429 266.874C280.301 269.509 282.951 277.522 296.957 281.275C300.802 282.3 317.915 287.488 320.919 289.041L310.225 300.653C309.159 297.695 308.102 294.788 307.149 292.21C307.4 291.697 307.077 291.072 306.59 290.672C305.319 287.165 304.293 284.34 304.201 284.007L303.176 284.263L302.15 284.361C302.15 284.581 302.15 284.622 304.632 291.389C304.278 292.225 304.709 293.02 305.144 292.999H305.206C306.231 295.763 307.4 299.049 308.61 302.407L308.149 302.919L308.897 303.222C311.727 311.081 314.577 319.114 315.249 321.565C318.228 332.413 323.477 347.393 328.107 360.615C329.235 363.819 330.306 366.88 331.29 369.72C331.408 370.074 331.531 370.422 331.649 370.745C331.767 371.068 331.89 371.442 332.008 371.77C309.497 372.011 291.8 372.283 286.089 372.555C264.326 373.58 256.241 374.723 253.519 375.231L253.006 375.333C253.006 376.308 253.006 377.307 253.052 378.327C253.114 380.716 253.242 383.229 253.447 385.828C255.662 413.512 267.233 451.106 312.26 460.446C313.286 460.667 314.367 460.857 315.439 461.031C319.659 461.693 323.922 462.044 328.194 462.082H330.711C335.607 462.007 340.496 461.656 345.353 461.031C368.387 458.129 393.467 449.686 416.567 441.037L417.593 440.657L418.618 440.278C423.888 438.289 429.056 436.295 434.059 434.367L438.443 432.675C442.144 431.25 453.613 427.062 458.104 426.328C460.298 425.35 462.668 424.827 465.071 424.79C467.712 424.775 470.296 425.563 472.479 427.051C478.303 430.896 481.958 439.314 484.014 449.014C484.393 450.824 484.721 452.674 484.998 454.551C485.316 456.719 485.562 458.914 485.747 461.108C485.747 461.456 485.803 461.81 485.829 462.159L485.905 463.184C486.013 464.86 486.085 466.527 486.126 468.172C486.15 469.242 486.162 470.303 486.162 471.356V471.423C486.168 471.595 486.19 471.767 486.228 471.935C486.309 472.285 486.417 472.628 486.551 472.961C486.674 473.278 486.828 473.632 487.008 474.012C489.007 478.205 494.405 485.936 501.665 495.477C502.347 496.374 503.049 497.292 503.767 498.22C511.703 508.529 521.5 520.618 531.394 532.512C531.979 533.214 532.558 533.917 533.143 534.614C540.535 543.473 547.918 552.157 554.557 559.837L558.294 557.858L559.237 557.346L560.181 556.833L588.541 541.914ZM354.355 318.233V318.366C354.205 318.576 354.102 318.815 354.053 319.068L322.026 306.195C323.052 305.462 324.626 303.791 327.84 300.269C329.686 298.218 331.772 295.952 332.505 295.45C337.724 291.861 343.241 284.499 347.675 278.588C350.315 275.066 352.802 271.729 354.391 270.416C363.204 274.784 375.011 280.29 377.856 280.772C377.856 281.326 378.179 281.746 378.502 281.731C383.065 281.536 378.881 277.44 378.194 279.593L378.143 278.711C375.785 278.583 349.998 266.3 345.717 263.511L344.973 263.029L342.41 265.792L342.128 265.377C341.862 264.972 341.477 264.864 340.944 264.756C334.72 263.316 328.619 257.359 322.785 247.069C322.478 246.526 321.703 244.48 320.883 242.322C319.089 237.595 316.854 231.71 315.244 229.639C314.219 228.275 313.142 227.588 312.019 227.475C311.516 227.438 311.012 227.528 310.553 227.737L310.507 219.765C324.123 219.837 341.313 229.598 356.58 239.841C356.504 239.946 356.446 240.064 356.411 240.189V240.333C355.734 241.287 356.221 242.327 356.734 242.302C358.108 242.245 358.682 241.83 358.785 241.343C363.358 244.455 367.726 247.577 371.74 250.438C377.451 254.539 382.383 258.035 386.423 260.532C399.875 268.848 413.302 281.608 422.34 294.665C431.665 308.113 435.11 319.95 431.778 327.122C426.892 337.647 407.396 337.95 376.882 327.978C367.413 324.902 365.824 323.877 365.147 323.441C364.638 323.093 364.048 322.88 363.435 322.821H363.317L356.273 319.986C357.944 318.956 354.909 316.387 354.355 318.233ZM226.999 483.891V532.568H133.529V483.927C133.642 480.569 133.75 477.293 133.852 474.068H226.922C226.973 478.318 226.999 481.696 226.999 483.891ZM226.891 471.966H134.319V463.189H226.737C226.804 466.363 226.855 469.305 226.891 471.966ZM202.283 350.859C211.096 352.909 214.438 355.196 214.613 355.919L214.741 356.483L215.294 356.672C217.186 357.329 221.908 364.28 224.892 414.542C225.871 430.948 226.43 447.794 226.711 461.087H134.247C134.305 459.037 134.363 457.02 134.421 455.038C135.908 404.561 136.887 371.212 145.187 361.22C154.226 350.362 170.933 347.89 185.35 348.572C187.797 348.825 190.249 349.034 192.706 349.198C195.919 349.581 199.109 350.136 202.262 350.859H202.283ZM215.822 300.992H213.341C212.316 300.92 211.065 300.869 209.691 300.828C211.229 299.705 213.28 298.3 215.494 296.767C225.209 290.041 230.946 285.883 233.499 283.197L237.052 301.371C234.566 301.135 228.993 301.033 215.802 300.992H215.822ZM247.162 248.413C246.727 248.414 246.309 248.243 246 247.938C245.691 247.632 245.515 247.217 245.511 246.782L245.357 217.468V216.356V215.843C245.358 215.656 245.391 215.47 245.455 215.294C245.566 214.975 245.774 214.697 246.049 214.5C246.325 214.303 246.654 214.195 246.993 214.192L261.347 214.12H262.398H263.454L291.83 213.972H293.927L306.805 213.905C307.238 213.906 307.653 214.078 307.96 214.383C308.267 214.689 308.442 215.102 308.446 215.535V217.704V219.867L308.492 228.378L308.261 228.444L308.497 229.413L308.559 241.205C308.345 241.764 308.055 242.292 307.697 242.773C306.728 244.055 305.339 244.706 303.447 244.773C298.967 244.932 290.21 242.348 283.177 240.271C278.814 238.99 275.041 237.877 272.549 237.442C269.263 236.873 267.745 238.467 267.422 240.005C266.91 242.707 269.355 246.157 274.379 248.284L247.162 248.413ZM345.363 265.756C346.722 266.525 349.28 267.858 352.392 269.417C350.705 271.067 348.567 273.918 346.009 277.332C341.667 283.12 336.268 290.323 331.331 293.737C330.46 294.337 328.85 296.075 326.302 298.864C324.323 301.038 321.334 304.319 320.586 304.657C320.683 304.622 320.786 304.61 320.888 304.621L320.801 305.708L311.891 302.12L345.363 265.756ZM267.73 144.28C268.13 144.223 268.478 144.177 268.755 144.126C271.831 143.495 282.484 143.536 288.201 143.562H290.533C291.882 143.562 292.933 143.562 293.763 143.526C294.173 143.526 294.527 143.501 294.835 143.485C295.281 143.46 295.624 143.429 295.891 143.398C292.753 128.915 277.594 122.891 264.618 125.455C254.114 127.505 243.004 135.954 246.28 152.882C246.336 153.159 246.47 154.026 246.654 155.23C246.864 156.579 247.167 158.424 247.5 160.557C247.783 160.277 248.1 160.034 248.443 159.834C248.759 159.65 249.093 159.498 249.438 159.378C250.376 159.077 251.362 158.958 252.345 159.029L253.719 159.127C255.949 159.296 257.707 159.429 258.517 158.614C259.209 157.917 259.45 156.307 259.23 153.836C258.492 145.505 264.962 144.644 267.73 144.28Z" fill="black"/>
<path d="M299.91 222.261C300.154 222.5 300.45 222.678 300.775 222.782C301.1 222.886 301.444 222.913 301.781 222.861C302.342 222.808 302.865 222.551 303.25 222.139C303.635 221.728 303.857 221.19 303.873 220.626C303.873 220.6 303.873 220.58 303.873 220.559C303.847 220.218 303.723 219.892 303.514 219.621C303.213 219.235 302.784 218.97 302.304 218.873C301.817 218.778 301.312 218.831 300.855 219.026C300.398 219.221 300.01 219.548 299.741 219.965C299.514 220.316 299.404 220.731 299.428 221.149C299.428 221.211 299.454 221.262 299.464 221.323C299.516 221.674 299.671 222 299.91 222.261Z" fill="black"/>
<path d="M667.21 547.877C662.006 549.656 653.071 549.266 642.715 548.82C635.927 548.523 628.36 548.205 620.824 548.441L620.875 548.4C621.265 548.089 621.68 547.811 622.116 547.569L622.546 547.338C623.213 546.974 623.854 546.616 624.459 546.262C633.282 541.099 635.225 536.808 634.081 534.594C633 532.543 629.811 532.461 625.951 534.44C623.24 535.86 620.897 537.89 619.106 540.371C619.691 532.722 617.128 528.421 614.38 526.986C613.525 526.488 612.527 526.297 611.549 526.443C610.572 526.59 609.673 527.065 609.002 527.79C606.797 530.154 606.259 535.634 611.355 543.939C611.782 544.675 612.144 545.447 612.437 546.246C612.488 546.364 612.534 546.477 612.58 546.595C612.734 546.974 612.893 547.338 613.062 547.667C613.262 548.075 613.545 548.436 613.893 548.728C611.696 548.715 609.506 548.507 607.346 548.107C604.783 547.692 602.634 547.349 599.333 548.297C598.682 548.487 597.985 548.723 597.231 549.02C596.6 549.271 595.929 549.563 595.211 549.902C594.903 550.045 594.586 550.199 594.257 550.363L593.324 550.84C589.223 552.988 583.753 556.479 575.924 562.062C575.458 562.39 573.961 563.334 572.069 564.523C570.813 565.313 569.137 566.369 567.717 567.276C567.404 567.476 567.107 567.666 566.83 567.85L565.948 568.43L565.61 568.66C566.943 570.444 569.357 574.012 572.274 578.334C578.252 587.162 589.29 603.455 591.812 604.813C592.945 604.424 594.888 603.614 597.221 602.558C597.904 602.25 598.605 601.922 599.323 601.573C600.922 600.81 602.599 599.964 604.239 599.072C611.457 595.165 613.001 593.079 613.001 592.561C612.944 592.371 612.724 591.817 612.524 591.325C610.714 586.829 608.971 581.887 611.216 580.118C612.867 578.816 615.759 579.77 620.598 583.194C621.972 584.174 626.822 584.548 643.899 576.099C654.916 570.649 666.831 563.621 673.952 559.422C676.11 558.151 677.822 557.141 678.894 556.536C679.406 555.961 679.852 552.434 678.181 549.748C676.3 546.723 672.501 546.072 667.21 547.877ZM610.54 529.226C610.898 528.838 611.381 528.588 611.905 528.52C612.429 528.451 612.96 528.569 613.406 528.852C615.523 529.959 618.532 534.563 616.323 544.796C616.194 545.385 616.092 545.821 616.01 546.149C615.959 546.293 615.918 546.431 615.882 546.559C615.821 546.765 615.778 546.976 615.754 547.19L615.431 546.78C615.33 546.86 615.224 546.932 615.113 546.995C615.023 546.873 614.946 546.743 614.882 546.605C614.718 546.272 614.539 545.826 614.369 545.462C614.03 544.553 613.613 543.675 613.124 542.837C608.95 536.003 608.812 531.077 610.54 529.226ZM616.461 548.635C616.579 548.553 616.676 548.477 616.743 548.42L616.615 548.261H616.81C617.322 548.261 617.584 548.072 617.804 547.508C617.905 547.249 617.988 546.983 618.05 546.713C618.081 546.631 618.117 546.539 618.148 546.446C618.968 544.324 621.454 539.105 626.909 536.316C629.842 534.814 631.877 534.917 632.215 535.573C632.759 536.598 630.729 540.628 621.131 545.718C620.776 545.91 620.434 546.124 620.106 546.359L619.593 546.739C619.452 546.856 619.303 546.964 619.147 547.062C619.241 547.028 619.342 547.016 619.441 547.026C619.54 547.035 619.636 547.067 619.722 547.118L618.814 547.461L617.84 547.831C617.931 548.088 618.061 548.33 618.225 548.548C617.635 548.553 617.045 548.6 616.461 548.635Z" fill="black"/>
<path d="M535.67 626.479C518.824 620.762 509.867 617.671 503.767 614.4C503.023 614.005 502.326 613.606 501.665 613.201C498.127 611.042 495.513 608.664 492.514 605.326L492.678 605.249L493.519 604.865L494.513 604.398C497.005 603.229 499.397 601.858 501.665 600.297V610.678C502.326 611.119 503.023 611.55 503.767 611.975V598.646C506.53 596.252 507.714 593.996 506.935 592.227C506.52 591.279 505.5 590.551 503.767 590.51V534.629H530.425L528.677 532.527H503.767V501.716C503.039 500.783 502.338 499.877 501.665 498.999V590.766C500.673 590.997 499.705 591.32 498.773 591.73C495.782 593.063 493.098 594.999 490.889 597.416C492.77 589.726 491.171 585.112 488.689 583.276C487.842 582.619 486.786 582.291 485.716 582.354C485.32 582.378 484.93 582.459 484.557 582.594C484.136 582.746 483.737 582.954 483.373 583.215L483.224 583.322C482.858 583.604 482.527 583.929 482.24 584.291C481.061 585.758 480.23 588.1 480.287 591.3C480.287 591.653 480.287 592.012 480.338 592.386C480.389 592.761 480.405 593.14 480.456 593.535C478.774 592.935 476.785 592.822 473.863 592.925L472.838 592.966L471.812 593.022L470.756 593.084C469.495 593.16 467.537 593.248 465.265 593.35C459.344 593.622 451.239 593.991 446.051 594.534C445.446 594.601 443.544 594.698 441.134 594.822L438.34 594.965L437.315 595.021L436.29 595.083C434.829 595.165 433.496 595.252 432.701 595.329C432.793 597.528 432.742 601.881 432.701 607.182C432.578 617.763 432.347 637.281 433.726 639.875C438.555 640.525 443.419 640.868 448.291 640.9C458.657 640.977 460.118 639.552 460.277 639.331C460.349 639.116 460.498 638.414 460.631 637.793C461.59 633.354 462.794 628.478 464.948 626.868C465.417 626.503 465.993 626.3 466.588 626.289C467.352 626.289 468.295 626.653 469.29 627.853C469.936 628.632 470.433 630.375 471.197 633.143C471.653 634.804 472.125 636.517 472.602 637.706C473.161 639.08 476.759 641.423 494.646 641.648C506.489 641.802 520.157 640.992 530.143 640.403C535.004 640.116 538.859 639.89 540.817 639.89C541.484 639.854 543.847 637.768 544.216 635.004C544.544 631.457 541.643 628.529 535.67 626.479ZM505.013 593.089C505.182 593.478 504.905 594.401 503.767 595.698V592.622C504.495 592.673 504.91 592.873 505.013 593.104V593.089ZM499.604 593.668C500.269 593.376 500.954 593.132 501.655 592.94V597.672C498.99 599.708 496.098 601.429 493.037 602.799C492.714 602.952 492.386 603.101 492.042 603.255L491.806 603.363C491.535 603.486 491.294 603.614 491.068 603.737C490.653 603.26 490.222 602.763 489.786 602.245C489.976 601.958 490.176 601.66 490.402 601.348C490.627 601.035 490.822 600.784 491.053 600.492C493.289 597.54 496.229 595.194 499.604 593.668ZM482.553 593.36C482.491 592.925 482.45 592.504 482.419 592.094C482.168 588.536 483.07 586.091 484.501 584.999C484.908 584.652 485.423 584.459 485.958 584.453C486.493 584.446 487.013 584.627 487.428 584.963C488.992 586.137 490.694 590.033 488.653 597.651C488.546 598.046 488.433 598.446 488.31 598.856C488.187 599.266 488.069 599.63 487.93 600.035C485.818 597.569 484.301 595.903 482.804 594.811C482.706 594.319 482.619 593.832 482.553 593.366V593.36Z" fill="black"/>
<path d="M558.935 333.336C561.955 334.618 565.302 335.899 569.009 337.15C576.663 339.76 588.259 342.743 595.191 344.527C598.308 345.327 600.768 345.963 601.404 346.183C602.225 346.492 603.091 346.666 603.967 346.696C604.36 346.722 604.753 346.658 605.117 346.507C605.481 346.357 605.805 346.125 606.064 345.83C607.941 343.538 604.865 338.093 599.697 329.393C597.564 325.805 595.544 322.406 594.483 319.93C592.32 314.89 588.331 308.446 583.656 300.961C574.971 287.027 564.174 269.688 562.806 256.082C562.067 248.715 558.074 242.753 552.127 240.087C547.226 237.903 541.925 238.339 537.941 241.261C535.081 243.358 533.184 246.531 532.302 250.489C529.308 253.052 525.914 256.743 526.15 258.651C526.247 259.373 526.827 260.142 528.149 260.142H529.175H530.815C531.23 260.142 531.641 260.142 532.051 260.142C533.199 270.785 532.692 279.803 532.24 287.78C531.282 304.606 530.615 316.443 546.595 326.887C547.026 333.551 547.897 343.138 548.2 346.368C535.26 346.819 521.813 350.223 513.851 359.815C510.775 363.522 508.647 369.863 507.135 378.814C507.785 379.365 508.408 379.93 509.006 380.511C510.462 371.283 512.498 364.726 515.471 361.158C528.503 345.501 557.469 347.286 572.526 350.802C581.338 352.853 584.681 355.14 584.83 355.862L584.958 356.426L585.506 356.616C587.398 357.272 592.12 364.224 595.109 414.486C596.083 430.891 596.647 447.737 596.929 461.031H557.74L558.335 462.082L558.93 463.107H596.067V471.884H563.872L564.461 472.909L565.051 473.96H597.154C597.211 478.215 597.231 481.589 597.231 483.783V532.461H596.062C596.411 533.26 596.698 533.958 596.939 534.563H597.231V535.321C598.297 538.167 598.062 538.664 597.903 538.997L597.754 539.31L597.241 539.587V546.651C597.995 546.38 598.687 546.139 599.343 545.99V483.891C599.343 474.519 598.964 443.759 597.221 414.414C594.319 365.634 589.915 356.611 586.675 354.893C585.137 351.987 576.935 349.767 573.305 348.89C568.327 347.734 563.264 346.975 558.166 346.619C558.253 345.081 558.33 343.671 558.402 342.297C558.556 339.211 558.704 336.402 558.935 333.336ZM529.2 258.097H528.324C528.672 257.159 530.159 255.421 531.825 253.78C532.204 253.406 532.594 253.037 532.984 252.678C533.373 252.319 533.814 251.935 534.214 251.601C534.852 251.04 535.538 250.536 536.265 250.094C536.593 250.402 536.921 250.694 537.244 250.981C538.562 252.16 539.705 253.175 540.32 254.693C540.674 255.554 540.494 255.98 540.32 256.231C539.505 257.43 536.649 257.887 533.912 258.046L532.856 258.097L531.83 258.123C530.8 258.117 529.867 258.107 529.205 258.097H529.2ZM550.302 346.378C550.04 343.548 549.251 334.91 548.764 328.312C551.384 329.841 554.088 331.223 556.864 332.449C556.597 335.827 556.438 338.837 556.264 342.19C556.187 343.558 556.115 344.979 556.028 346.496C554.193 346.393 552.25 346.352 550.307 346.378H550.302Z" fill="black"/>
<path d="M189.471 273.81C189.409 274.074 189.361 274.341 189.328 274.61C189.328 276.743 192.614 276.097 191.999 274.128C191.573 272.764 189.825 273.098 189.471 273.81Z" fill="black"/>
<path d="M227.496 249.048C227.432 249.312 227.384 249.579 227.352 249.848C227.352 251.981 230.633 251.335 230.023 249.366C229.598 248.002 227.85 248.336 227.496 249.048Z" fill="black"/>
<path d="M360.963 260.804C360.896 261.067 360.846 261.334 360.815 261.604C360.815 263.736 364.101 263.09 363.486 261.127C363.06 259.758 361.317 260.091 360.963 260.804Z" fill="black"/>
<path d="M323.493 320.232C323.43 320.497 323.382 320.766 323.349 321.037C323.349 323.165 326.63 322.519 326.02 320.555C325.605 319.191 323.857 319.525 323.493 320.232Z" fill="black"/>
<path d="M357.436 348.547C357.368 348.811 357.319 349.08 357.288 349.352C357.288 351.484 360.574 350.833 359.959 348.87C359.533 347.506 357.785 347.839 357.436 348.547Z" fill="black"/>
<path d="M277.814 301.75C277.389 300.387 275.64 300.725 275.292 301.433C275.224 301.696 275.175 301.963 275.143 302.232C275.143 304.365 278.429 303.719 277.814 301.75Z" fill="black"/>
<path d="M158.783 307.8C158.715 308.065 158.665 308.333 158.634 308.605C158.634 310.732 161.921 310.087 161.305 308.123C160.88 306.759 159.132 307.087 158.783 307.8Z" fill="black"/>
<path d="M216.217 327.891C215.792 326.523 214.043 326.866 213.69 327.568C213.627 327.834 213.579 328.102 213.546 328.373C213.546 330.501 216.858 329.855 216.217 327.891Z" fill="black"/>
<path d="M281.259 274.856C280.834 273.492 279.085 273.831 278.732 274.538C278.668 274.802 278.621 275.069 278.588 275.338C278.588 277.471 281.874 276.84 281.259 274.856Z" fill="black"/>
<path d="M290.205 353.586C289.78 352.222 288.031 352.561 287.683 353.268C287.615 353.531 287.566 353.798 287.534 354.068C287.534 356.201 290.82 355.555 290.205 353.586Z" fill="black"/>
<path d="M201.632 339.216C201.206 337.847 199.458 338.191 199.104 338.893C199.042 339.157 198.994 339.424 198.961 339.693C198.961 341.826 202.242 341.18 201.632 339.216Z" fill="black"/>
<path d="M214.848 271.262V271.401C214.172 272.354 214.664 273.395 215.171 273.374C219.744 273.18 215.51 269.053 214.848 271.262Z" fill="black"/>
<path d="M411.518 296.111C416.101 295.916 411.866 291.789 411.205 293.999V294.137C410.518 295.091 411.01 296.132 411.518 296.111Z" fill="black"/>
<path d="M196.551 314.034V314.178C195.875 315.131 196.362 316.172 196.869 316.146C201.447 315.951 197.213 311.824 196.551 314.034Z" fill="black"/>
<path d="M368.356 303.145C372.934 302.95 368.7 298.823 368.038 301.033V301.171C367.356 302.125 367.849 303.165 368.356 303.145Z" fill="black"/>
<path d="M316.556 351.761V351.9C315.88 352.853 316.367 353.894 316.879 353.873C321.442 353.678 317.218 349.552 316.556 351.761Z" fill="black"/>
<path d="M206.692 292.63V292.769C206.015 293.722 206.502 294.763 207.015 294.742C211.588 294.542 207.353 290.415 206.692 292.63Z" fill="black"/>
<path d="M326.697 330.352V330.491C326.02 331.444 326.512 332.485 327.02 332.464C331.593 332.269 327.358 328.143 326.697 330.352Z" fill="black"/>
<path d="M184.939 253.196V253.334C184.263 254.288 184.755 255.329 185.262 255.308C189.83 255.113 185.585 250.986 184.939 253.196Z" fill="black"/>
<path d="M416.988 312.609C421.571 312.414 417.336 308.287 416.675 310.497V310.64C415.993 311.594 416.48 312.634 416.988 312.609Z" fill="black"/>
<path d="M222.964 228.434V228.572C222.287 229.526 222.779 230.567 223.287 230.546C227.855 230.351 223.62 226.224 222.964 228.434Z" fill="black"/>
<path d="M270.755 280.818V280.941C270.078 281.895 270.565 282.935 271.078 282.915C275.651 282.736 271.416 278.609 270.755 280.818Z" fill="black"/>
<path d="M228.296 339.498C232.874 339.303 228.639 335.176 227.978 337.386V337.524C227.296 338.478 227.788 339.519 228.296 339.498Z" fill="black"/>
<path d="M182.868 331.239V331.377C182.191 332.331 182.678 333.372 183.191 333.351C187.764 333.156 183.535 329.029 182.868 331.239Z" fill="black"/>
<path d="M150.678 329.901C155.256 329.701 151.021 325.579 150.36 327.789V327.927C149.699 328.881 150.165 329.922 150.678 329.901Z" fill="black"/>
<path d="M261.419 286.781V286.919C260.737 287.873 261.229 288.913 261.737 288.893C266.31 288.698 262.08 284.571 261.419 286.781Z" fill="black"/>
<path d="M270.365 365.531V365.67C269.688 366.623 270.175 367.664 270.688 367.644C275.261 367.428 271.026 363.301 270.365 365.531Z" fill="black"/>
<path d="M148.612 294.958V295.101C147.935 296.055 148.422 297.09 148.935 297.07C153.508 296.875 149.273 292.733 148.612 294.958Z" fill="black"/>
<path d="M259.671 253.949V254.093C258.989 255.046 259.481 256.087 259.989 256.062C264.567 255.867 260.332 251.719 259.671 253.949Z" fill="black"/>
<path d="M268.637 332.685V332.823C267.961 333.777 268.448 334.817 268.96 334.797C273.513 334.597 269.278 330.47 268.637 332.685Z" fill="black"/>
<path d="M134.375 316.828L134.508 316.874C135.252 317.776 136.385 317.576 136.497 317.079C137.512 312.593 132.417 315.592 134.375 316.828Z" fill="black"/>
<path d="M245.434 275.815L245.567 275.861C246.311 276.763 247.439 276.563 247.556 276.071C248.572 271.585 243.476 274.584 245.434 275.815Z" fill="black"/>
<path d="M344.471 330.824C345.214 331.731 346.347 331.531 346.46 331.034C347.485 326.564 342.359 329.563 344.338 330.783L344.471 330.824Z" fill="black"/>
<path d="M393.502 325.938L393.636 325.979C394.379 326.887 395.512 326.687 395.625 326.189C396.64 321.719 391.544 324.718 393.502 325.938Z" fill="black"/>
<path d="M203.288 253.452C201.95 253.729 202.714 257.389 205.015 255.503C205.764 254.898 205.764 252.94 203.288 253.452Z" fill="black"/>
<path d="M401.367 278.245C402.115 277.635 402.12 275.681 399.644 276.194C398.306 276.466 399.065 280.126 401.367 278.245Z" fill="black"/>
<path d="M336.13 252.955C334.792 253.232 335.551 256.897 337.852 255.006C338.601 254.401 338.606 252.442 336.13 252.955Z" fill="black"/>
<path d="M325.031 293.245C325.779 292.63 325.779 290.682 323.303 291.195C321.955 291.451 322.719 295.117 325.031 293.245Z" fill="black"/>
<path d="M163.858 272.677C162.52 272.959 163.279 276.62 165.581 274.728C166.33 274.128 166.335 272.17 163.858 272.677Z" fill="black"/>
<path d="M424.683 324.431C425.431 323.821 425.436 321.868 422.96 322.38C421.622 322.647 422.381 326.312 424.683 324.431Z" fill="black"/>
<path d="M326.056 233.053C324.718 233.33 325.477 236.996 327.779 235.104C328.527 234.499 328.532 232.541 326.056 233.053Z" fill="black"/>
<path d="M346.229 364.844C346.978 364.229 346.983 362.281 344.507 362.794C343.169 363.06 343.928 366.721 346.229 364.844Z" fill="black"/>
<path d="M285.586 312.465C286.334 311.85 286.34 309.902 283.863 310.414C282.525 310.676 283.284 314.347 285.586 312.465Z" fill="black"/>
<path d="M249.669 300.305C248.331 300.582 249.094 304.242 251.396 302.355C252.15 301.75 252.15 299.792 249.669 300.305Z" fill="black"/>
<path d="M184.991 296.224C183.653 296.501 184.411 300.166 186.713 298.275C187.462 297.67 187.467 295.711 184.991 296.224Z" fill="black"/>
<path d="M219.001 245.214C219.749 244.603 219.749 242.65 217.278 243.163C215.935 243.429 216.699 247.105 219.001 245.214Z" fill="black"/>
<path d="M358.205 285.278C358.954 284.668 358.954 282.715 356.483 283.228C355.14 283.505 355.904 287.16 358.205 285.278Z" fill="black"/>
<path d="M306.718 336.007C307.467 335.397 307.472 333.443 304.996 333.956C303.658 334.223 304.416 337.888 306.718 336.007Z" fill="black"/>
<path d="M225.819 313.239C224.481 313.516 225.245 317.182 227.547 315.29C228.296 314.7 228.296 312.727 225.819 313.239Z" fill="black"/>
<path d="M399.034 302.304C399.783 301.694 399.788 299.741 397.311 300.254C395.973 300.52 396.732 304.186 399.034 302.304Z" fill="black"/>
</svg>
